<?xml version="1.0" encoding="utf-8"?>
<!-- Generator: Adobe Illustrator 19.1.0, SVG Export Plug-In . SVG Version: 6.00 Build 0)  -->
<svg version="1.1" id="Capa_1" xmlns="http://www.w3.org/2000/svg" xmlns:xlink="http://www.w3.org/1999/xlink" x="0px" y="0px"
	 viewBox="0 0 269 17.5" style="enable-background:new 0 0 269 17.5;" xml:space="preserve">
<style type="text/css">
	.st0{fill:#ff718f;}
</style>
<g id="Barragan">
	<path class="st0" d="M169.4,4.5c2.3,0,4,1,4,3.1c0,1.6-0.7,2.5-2.2,3c1.7,0.5,2.6,1.5,2.6,2.9c0,2.7-1.8,3.7-4.7,3.7h-5.7v-1.5
		l1.3-0.5V6.7l-1.3-0.5V4.6l4.1-0.1H169.4z M168.6,9.7c1.3,0,2-0.6,2-1.7c0-0.9-0.7-1.4-1.5-1.4h-1.5v3H168.6z M169,15.1
		c1.3,0,1.9-0.6,1.9-1.6c0-1.3-0.8-1.9-2.4-1.9h-1v3.5H169z"/>
	<path class="st0" d="M188.2,17.3h-5.7v-1.5l1.3-0.5l-0.4-1.3h-4l-0.4,1.3l1.4,0.5v1.5H175v-1.5l1.3-0.5l4-10.6l2.9-0.1l3.9,10.7
		l1.3,0.5V17.3z M181.5,7.7l-1.4,4.3h2.8L181.5,7.7z"/>
	<path class="st0" d="M189.6,15.7l1.3-0.5V6.7l-1.3-0.5V4.6l4.1-0.1h1.4c3,0,4.7,1.2,4.7,3.7c0,1.7-0.8,2.8-2,3.4
		c0.2,0.2,0.5,0.6,0.8,1.2l1.2,2.5l1.2,0.5v1.5h-3.3l-1.5-3.3c-0.6-1.4-0.8-1.7-1.7-1.7h-0.6v2.9l1.3,0.5v1.5h-5.4V15.7z
		 M194.7,10.4c1.4,0,2.2-0.7,2.2-1.9c0-1-0.7-1.8-1.8-1.8h-1.5v3.7H194.7z"/>
	<path class="st0" d="M202.3,15.7l1.3-0.5V6.7l-1.3-0.5V4.6l4.1-0.1h1.4c3,0,4.7,1.2,4.7,3.7c0,1.7-0.8,2.8-2,3.4
		c0.2,0.2,0.5,0.6,0.8,1.2l1.2,2.5l1.2,0.5v1.5h-3.3l-1.5-3.3c-0.6-1.4-0.8-1.7-1.7-1.7h-0.6v2.9l1.3,0.5v1.5h-5.4V15.7z
		 M207.4,10.4c1.4,0,2.2-0.7,2.2-1.9c0-1-0.7-1.8-1.8-1.8h-1.5v3.7H207.4z"/>
	<path class="st0" d="M228,17.3h-5.7v-1.5l1.3-0.5l-0.4-1.3h-4l-0.4,1.3l1.4,0.5v1.5h-5.4v-1.5l1.3-0.5l4-10.6l2.9-0.1l3.9,10.7
		l1.3,0.5V17.3z M221.2,7.7l-1.4,4.3h2.8L221.2,7.7z"/>
	<path class="st0" d="M236.9,6.9c0,0-0.8-0.3-2-0.3c-1.9,0-3,1.4-3,4.4c0,2.9,1.1,4.2,3.1,4.2c0.9,0,2-0.3,2-0.3v-2.3l-1.3-0.4v-1.5
		l5.2-0.1v1.6l-1.2,0.4v3.7c0,0-1.9,1.2-4.9,1.2c-3.7,0-5.8-2.2-5.8-6.4c0-4.2,2.4-6.8,6.1-6.8c2.2,0,4.2,0.8,4.2,0.8L239,8.4h-1.7
		L236.9,6.9z"/>
	<path class="st0" d="M254.7,17.3H249v-1.5l1.3-0.5l-0.4-1.3h-4l-0.4,1.3l1.4,0.5v1.5h-5.4v-1.5l1.3-0.5l4-10.6l2.9-0.1l3.9,10.7
		l1.3,0.5V17.3z M247.9,7.7l-1.4,4.3h2.8L247.9,7.7z"/>
	<path class="st0" d="M256,15.7l1.3-0.5V6.7L256,6.2V4.6l4.3-0.1l4.9,8.3V6.7l-1.3-0.5V4.6l5.1-0.1v1.6l-1.3,0.5v10.6h-3l-4.8-8.2
		v6.1l1.4,0.5v1.5H256V15.7z"/>
</g>
<g id="Reyes">
	<path class="st0" d="M100.4,15.7l1.3-0.5V6.7l-1.3-0.5V4.6l4.1-0.1h1.4c3,0,4.7,1.2,4.7,3.7c0,1.7-0.8,2.8-2,3.4
		c0.2,0.2,0.5,0.6,0.8,1.2l1.2,2.5l1.2,0.5v1.5h-3.3l-1.5-3.3c-0.6-1.4-0.8-1.7-1.7-1.7h-0.6v2.9l1.3,0.5v1.5h-5.4V15.7z
		 M105.6,10.4c1.4,0,2.2-0.7,2.2-1.9c0-1-0.7-1.8-1.8-1.8h-1.5v3.7H105.6z"/>
	<path class="st0" d="M121,11.7h-3.6v3.4h3.2l0.4-1.5h1.6v3.6h-9.4v-1.5l1.3-0.5V6.7l-1.3-0.5V4.6l4.1-0.1h5V8h-1.6l-0.4-1.3h-3v3
		h3.6V11.7z"/>
	<path class="st0" d="M127.1,15.7l1.3-0.5v-2.3l-3.3-6.2L124,6.2V4.6l5.1-0.1v1.6l-0.9,0.4l1.8,3.9l1.9-3.9l-1-0.4V4.6l4.9-0.1v1.6
		l-1.2,0.5l-3.3,6.2v2.3l1.3,0.5v1.5h-5.5V15.7z"/>
	<path class="st0" d="M144.9,11.7h-3.6v3.4h3.2l0.4-1.5h1.6v3.6h-9.4v-1.5l1.3-0.5V6.7l-1.3-0.5V4.6l4.1-0.1h5V8h-1.6l-0.4-1.3h-3v3
		h3.6V11.7z"/>
	<path class="st0" d="M150.9,14.9c0,0,0.7,0.4,1.8,0.4c1.2,0,2.2-0.5,2.2-1.5c0-2.1-6.1-1.2-6.1-5.6c0-2.5,2-3.8,4.6-3.8
		c2,0,4,0.7,4,0.7l-0.1,3.3h-1.7l-0.4-1.5c0,0-0.8-0.3-1.6-0.3c-1.3,0-1.9,0.6-1.9,1.3c0,2.1,6.1,1.3,6.1,5.5c0,2.7-2.1,4.2-4.9,4.2
		c-2,0-4-0.7-4-0.7v-3.5h1.8L150.9,14.9z"/>
</g>
<g id="Angelica_1_">
	<path d="M13.3,17.3H7.6v-1.5l1.3-0.5l-0.4-1.3h-4L4,15.2l1.4,0.5v1.5H0v-1.5l1.3-0.5l4-10.6l2.9-0.1L12,15.2l1.3,0.5V17.3z
		 M6.5,7.7L5.1,12h2.8L6.5,7.7z"/>
	<path d="M14.6,15.7l1.3-0.5V6.7l-1.3-0.5V4.6l4.3-0.1l4.9,8.3V6.7l-1.3-0.5V4.6l5.1-0.1v1.6l-1.3,0.5v10.6h-3l-4.8-8.2v6.1l1.4,0.5
		v1.5h-5.2V15.7z"/>
	<path d="M36.9,6.9c0,0-0.8-0.3-2-0.3c-1.9,0-3,1.4-3,4.4c0,2.9,1.1,4.2,3.1,4.2c0.9,0,2-0.3,2-0.3v-2.3l-1.3-0.4v-1.5l5.2-0.1v1.6
		l-1.2,0.4v3.7c0,0-1.9,1.2-4.9,1.2c-3.7,0-5.8-2.2-5.8-6.4c0-4.2,2.4-6.8,6.1-6.8c2.2,0,4.2,0.8,4.2,0.8l-0.1,3.3h-1.7L36.9,6.9z"
		/>
	<path d="M49.8,11.7h-3.6v3.4h3.2l0.4-1.5h1.6v3.6H42v-1.5l1.3-0.5V6.7L42,6.2V4.6l4.1-0.1h5V8h-1.6l-0.4-1.3h-3v3h3.6V11.7z
		 M45.2,2.5L49,0l1,2L46,4L45.2,2.5z"/>
	<path d="M60.4,13.1h1.7v4.2h-9v-1.5l1.3-0.5V6.7l-1.3-0.5V4.6l5.5-0.1v1.6l-1.3,0.5v8.4H60L60.4,13.1z"/>
	<path d="M63.5,15.7l1.3-0.5V6.7l-1.3-0.5V4.6L69,4.5v1.6l-1.3,0.5v8.5l1.3,0.5v1.5h-5.5V15.7z"/>
	<path d="M78.5,6.9c0,0-0.8-0.3-2-0.3c-1.9,0-3,1.4-3,4.4c0,2.9,1.2,4.2,3.1,4.2c1.8,0,3.4-1.3,3.4-1.3l1,1.6c0,0-1.9,2-4.7,2
		c-3.7,0-5.8-2.2-5.8-6.4c0-4.2,2.4-6.8,6.1-6.8c2.2,0,4.2,0.8,4.2,0.8l-0.1,3.4h-1.8L78.5,6.9z"/>
	<path d="M95.5,17.3h-5.7v-1.5l1.3-0.5l-0.4-1.3h-4l-0.4,1.3l1.4,0.5v1.5h-5.4v-1.5l1.3-0.5l4-10.6l2.9-0.1l3.9,10.7l1.3,0.5V17.3z
		 M88.7,7.7L87.3,12h2.8L88.7,7.7z"/>
</g>
</svg>
